<mxfile host="app.diagrams.net" modified="2023-11-21T15:48:34.467Z" agent="Mozilla/5.0 (Windows NT 10.0; Win64; x64) AppleWebKit/537.36 (KHTML, like Gecko) Chrome/119.0.0.0 Safari/537.36" etag="Pex2C-emzO6IJnbmOX20" version="22.1.3" type="github">
  <diagram name="Page-1" id="82e54ff1-d628-8f03-85c4-9753963a91cd">
    <mxGraphModel dx="1647" dy="886" grid="1" gridSize="10" guides="1" tooltips="1" connect="1" arrows="1" fold="1" page="1" pageScale="1" pageWidth="1100" pageHeight="850" background="none" math="0" shadow="0">
      <root>
        <mxCell id="0" />
        <mxCell id="1" parent="0" />
        <mxCell id="QszXW-YfP5qL2xS7L1p2-23" value="" style="shape=ext;double=1;rounded=1;whiteSpace=wrap;html=1;" vertex="1" parent="1">
          <mxGeometry x="10" y="20" width="1477" height="860" as="geometry" />
        </mxCell>
        <mxCell id="QszXW-YfP5qL2xS7L1p2-26" value="&lt;h1&gt;&lt;font style=&quot;font-size: 18px;&quot;&gt;Consumers&lt;/font&gt;&lt;/h1&gt;" style="text;html=1;spacing=5;spacingTop=-20;whiteSpace=wrap;overflow=hidden;strokeColor=none;strokeWidth=3;fillColor=#E6E6E6;fontSize=13;fontColor=#000000;align=center;rounded=1;glass=0;shadow=0;" vertex="1" parent="1">
          <mxGeometry x="1050" y="150" width="380" height="490" as="geometry" />
        </mxCell>
        <mxCell id="4ec97bd9e5d20128-1" value="" style="line;strokeWidth=2;html=1;fillColor=none;fontSize=28;fontColor=#004D99;strokeColor=#004D99;" parent="1" vertex="1">
          <mxGeometry x="40" y="400" width="1000" height="10" as="geometry" />
        </mxCell>
        <mxCell id="4ec97bd9e5d20128-5" value="Acquisition" style="shape=offPageConnector;whiteSpace=wrap;html=1;fillColor=#0075E8;fontSize=15;fontColor=#FFFFFF;size=0.75;verticalAlign=top;strokeColor=none;shadow=1;" parent="1" vertex="1">
          <mxGeometry x="120" y="340" width="160" height="40" as="geometry" />
        </mxCell>
        <mxCell id="4ec97bd9e5d20128-6" value="&lt;span&gt;Warehouse&lt;/span&gt;" style="shape=offPageConnector;whiteSpace=wrap;html=1;fillColor=#0075E8;fontSize=15;fontColor=#FFFFFF;size=0.75;verticalAlign=top;strokeColor=none;shadow=1;" parent="1" vertex="1">
          <mxGeometry x="573" y="340" width="160" height="40" as="geometry" />
        </mxCell>
        <mxCell id="4ec97bd9e5d20128-7" value="&lt;span&gt;Storage&lt;/span&gt;" style="shape=offPageConnector;whiteSpace=wrap;html=1;fillColor=#0075E8;fontSize=15;fontColor=#FFFFFF;size=0.4178571428571445;flipV=1;verticalAlign=bottom;strokeColor=none;spacingBottom=4;rounded=0;shadow=1;" parent="1" vertex="1">
          <mxGeometry x="347" y="425" width="160" height="35" as="geometry" />
        </mxCell>
        <mxCell id="4ec97bd9e5d20128-8" value="&lt;span&gt;Generation&lt;/span&gt;" style="shape=offPageConnector;whiteSpace=wrap;html=1;fillColor=#0075E8;fontSize=15;fontColor=#FFFFFF;size=0.42857142857142855;flipV=1;verticalAlign=bottom;strokeColor=none;spacingBottom=4;shadow=1;" parent="1" vertex="1">
          <mxGeometry x="800" y="425" width="160" height="35" as="geometry" />
        </mxCell>
        <mxCell id="4ec97bd9e5d20128-9" value="" style="ellipse;whiteSpace=wrap;html=1;fillColor=#61BAFF;fontSize=28;fontColor=#004D99;strokeWidth=3;strokeColor=#004D99;" parent="1" vertex="1">
          <mxGeometry x="190" y="395" width="20" height="20" as="geometry" />
        </mxCell>
        <mxCell id="4ec97bd9e5d20128-10" value="" style="ellipse;whiteSpace=wrap;html=1;fillColor=#61BAFF;fontSize=28;fontColor=#004D99;strokeWidth=3;strokeColor=#004D99;" parent="1" vertex="1">
          <mxGeometry x="417" y="395" width="20" height="20" as="geometry" />
        </mxCell>
        <mxCell id="4ec97bd9e5d20128-11" value="" style="ellipse;whiteSpace=wrap;html=1;fillColor=#61BAFF;fontSize=28;fontColor=#004D99;strokeWidth=3;strokeColor=#004D99;" parent="1" vertex="1">
          <mxGeometry x="643" y="395" width="20" height="20" as="geometry" />
        </mxCell>
        <mxCell id="4ec97bd9e5d20128-13" value="" style="ellipse;whiteSpace=wrap;html=1;fillColor=#61BAFF;fontSize=28;fontColor=#004D99;strokeWidth=3;strokeColor=#004D99;" parent="1" vertex="1">
          <mxGeometry x="870" y="395" width="20" height="20" as="geometry" />
        </mxCell>
        <mxCell id="4ec97bd9e5d20128-14" value="&lt;h1&gt;&lt;font style=&quot;font-size: 19px;&quot;&gt;Sources&lt;/font&gt;&lt;/h1&gt;&lt;p&gt;Data Providers&lt;/p&gt;&lt;p&gt;Data Streams&lt;/p&gt;&lt;p&gt;Data Exchanges&lt;/p&gt;&lt;p&gt;Data Collections&lt;/p&gt;" style="text;html=1;spacing=5;spacingTop=-20;whiteSpace=wrap;overflow=hidden;strokeColor=none;strokeWidth=3;fillColor=#E6E6E6;fontSize=13;fontColor=#000000;align=center;rounded=1;glass=1;shadow=1;" parent="1" vertex="1">
          <mxGeometry x="93" y="430" width="215" height="210" as="geometry" />
        </mxCell>
        <mxCell id="4ec97bd9e5d20128-16" value="&lt;h1&gt;&lt;font style=&quot;font-size: 19px;&quot;&gt;Staging&lt;/font&gt;&lt;/h1&gt;&lt;p&gt;Extraction&lt;/p&gt;&lt;p&gt;Ingestion&lt;/p&gt;&lt;p&gt;Storage&lt;/p&gt;&lt;p&gt;Replication&lt;/p&gt;&lt;p&gt;Transformation&lt;/p&gt;&lt;p&gt;&lt;br&gt;&lt;/p&gt;" style="text;html=1;spacing=5;spacingTop=-20;whiteSpace=wrap;overflow=hidden;strokeColor=none;strokeWidth=3;fillColor=#E6E6E6;fontSize=13;fontColor=#000000;align=center;rounded=1;glass=1;shadow=1;" parent="1" vertex="1">
          <mxGeometry x="319" y="140" width="215" height="220" as="geometry" />
        </mxCell>
        <mxCell id="4ec97bd9e5d20128-17" value="&lt;h1 style=&quot;font-size: 19px;&quot;&gt;&lt;font style=&quot;font-size: 19px;&quot;&gt;Data Marts&lt;/font&gt;&lt;/h1&gt;&lt;div style=&quot;&quot;&gt;&lt;font style=&quot;font-size: 13px;&quot;&gt;Dependent&lt;/font&gt;&lt;/div&gt;&lt;div&gt;&lt;br&gt;&lt;/div&gt;&lt;div style=&quot;&quot;&gt;&lt;font style=&quot;font-size: 13px;&quot;&gt;Independent&lt;/font&gt;&lt;/div&gt;&lt;div style=&quot;font-size: 14px;&quot;&gt;&lt;br&gt;&lt;/div&gt;&lt;div&gt;Hybrid&lt;/div&gt;&lt;div&gt;&lt;br&gt;&lt;/div&gt;" style="text;html=1;spacing=5;spacingTop=-20;whiteSpace=wrap;overflow=hidden;strokeColor=none;strokeWidth=3;fillColor=#E6E6E6;fontSize=13;fontColor=#000000;align=center;rounded=1;glass=1;shadow=1;" parent="1" vertex="1">
          <mxGeometry x="545" y="430" width="215" height="210" as="geometry" />
        </mxCell>
        <mxCell id="4ec97bd9e5d20128-18" value="&lt;h1&gt;&lt;font style=&quot;font-size: 19px;&quot;&gt;BI&lt;/font&gt;&lt;/h1&gt;&lt;p&gt;Reporting&amp;nbsp;&lt;/p&gt;&lt;p&gt;Raw Data&lt;/p&gt;&lt;p&gt;&lt;span style=&quot;background-color: initial;&quot;&gt;Anonymous Data&lt;/span&gt;&lt;/p&gt;&lt;p&gt;Synthetic Data&lt;/p&gt;&lt;p&gt;Analytics&lt;/p&gt;&lt;p&gt;ML&lt;/p&gt;" style="text;html=1;spacing=5;spacingTop=-20;whiteSpace=wrap;overflow=hidden;strokeColor=none;strokeWidth=3;fillColor=#E6E6E6;fontSize=13;fontColor=#000000;align=center;rounded=1;glass=1;shadow=1;" parent="1" vertex="1">
          <mxGeometry x="773" y="140" width="215" height="220" as="geometry" />
        </mxCell>
        <mxCell id="QszXW-YfP5qL2xS7L1p2-7" value="" style="edgeStyle=orthogonalEdgeStyle;rounded=0;hachureGap=4;orthogonalLoop=1;jettySize=auto;html=1;fontFamily=Architects Daughter;fontSource=https%3A%2F%2Ffonts.googleapis.com%2Fcss%3Ffamily%3DArchitects%2BDaughter;fontSize=16;strokeColor=#12299b;" edge="1" parent="1" source="QszXW-YfP5qL2xS7L1p2-1" target="QszXW-YfP5qL2xS7L1p2-5">
          <mxGeometry relative="1" as="geometry" />
        </mxCell>
        <mxCell id="QszXW-YfP5qL2xS7L1p2-1" value="&amp;nbsp;Data Assets" style="label;whiteSpace=wrap;html=1;glass=1;rounded=1;shadow=1;" vertex="1" parent="1">
          <mxGeometry x="1160" y="217" width="220" height="60" as="geometry" />
        </mxCell>
        <mxCell id="QszXW-YfP5qL2xS7L1p2-9" value="" style="edgeStyle=orthogonalEdgeStyle;rounded=0;hachureGap=4;orthogonalLoop=1;jettySize=auto;html=1;fontFamily=Architects Daughter;fontSource=https%3A%2F%2Ffonts.googleapis.com%2Fcss%3Ffamily%3DArchitects%2BDaughter;fontSize=16;strokeColor=#12299b;" edge="1" parent="1" source="QszXW-YfP5qL2xS7L1p2-2" target="QszXW-YfP5qL2xS7L1p2-5">
          <mxGeometry relative="1" as="geometry" />
        </mxCell>
        <mxCell id="QszXW-YfP5qL2xS7L1p2-2" value="Insights" style="label;whiteSpace=wrap;html=1;glass=1;rounded=1;shadow=1;" vertex="1" parent="1">
          <mxGeometry x="1160" y="320" width="220" height="60" as="geometry" />
        </mxCell>
        <mxCell id="QszXW-YfP5qL2xS7L1p2-3" value="Embedded Data" style="label;whiteSpace=wrap;html=1;glass=1;shadow=1;" vertex="1" parent="1">
          <mxGeometry x="1160" y="422" width="220" height="60" as="geometry" />
        </mxCell>
        <mxCell id="QszXW-YfP5qL2xS7L1p2-8" value="" style="edgeStyle=elbowEdgeStyle;rounded=0;hachureGap=4;orthogonalLoop=1;jettySize=auto;html=1;fontFamily=Architects Daughter;fontSource=https%3A%2F%2Ffonts.googleapis.com%2Fcss%3Ffamily%3DArchitects%2BDaughter;fontSize=16;strokeColor=#12299b;" edge="1" parent="1" source="QszXW-YfP5qL2xS7L1p2-4" target="QszXW-YfP5qL2xS7L1p2-5">
          <mxGeometry relative="1" as="geometry" />
        </mxCell>
        <mxCell id="QszXW-YfP5qL2xS7L1p2-4" value="Sell to/through Partners" style="label;whiteSpace=wrap;html=1;glass=1;shadow=1;" vertex="1" parent="1">
          <mxGeometry x="1160" y="522" width="220" height="60" as="geometry" />
        </mxCell>
        <mxCell id="QszXW-YfP5qL2xS7L1p2-5" value="" style="shape=curlyBracket;whiteSpace=wrap;html=1;rounded=1;labelPosition=left;verticalLabelPosition=middle;align=right;verticalAlign=middle;hachureGap=4;fontFamily=Architects Daughter;fontSource=https%3A%2F%2Ffonts.googleapis.com%2Fcss%3Ffamily%3DArchitects%2BDaughter;fontSize=20;size=0.5;strokeColor=#000066;" vertex="1" parent="1">
          <mxGeometry x="1041" y="190" width="20" height="430" as="geometry" />
        </mxCell>
        <mxCell id="QszXW-YfP5qL2xS7L1p2-19" value="" style="endArrow=none;html=1;rounded=0;strokeColor=#12299b;" edge="1" parent="1">
          <mxGeometry width="50" height="50" relative="1" as="geometry">
            <mxPoint x="1110" y="453" as="sourcePoint" />
            <mxPoint x="1160" y="453" as="targetPoint" />
          </mxGeometry>
        </mxCell>
        <mxCell id="QszXW-YfP5qL2xS7L1p2-21" value="&lt;span&gt;Consumption&lt;/span&gt;" style="shape=offPageConnector;whiteSpace=wrap;html=1;fillColor=#0075E8;fontSize=15;fontColor=#FFFFFF;size=0.42857142857142855;flipV=1;verticalAlign=bottom;strokeColor=none;spacingBottom=4;shadow=1;rotation=90;" vertex="1" parent="1">
          <mxGeometry x="986" y="390" width="160" height="35" as="geometry" />
        </mxCell>
        <mxCell id="QszXW-YfP5qL2xS7L1p2-25" value="&lt;font style=&quot;font-size: 18px;&quot;&gt;Data Governance, Privacy and Security&lt;/font&gt;" style="shape=partialRectangle;whiteSpace=wrap;html=1;bottom=1;right=1;left=1;top=0;fillColor=none;routingCenterX=-0.5;shadow=1;fontSize=14;fontStyle=1" vertex="1" parent="1">
          <mxGeometry x="40" y="680" width="1370" height="60" as="geometry" />
        </mxCell>
      </root>
    </mxGraphModel>
  </diagram>
</mxfile>
